<svg width="67" height="67" viewBox="0 0 67 67" fill="none" xmlns="http://www.w3.org/2000/svg">
<path d="M33.4175 66.5V62.375H59.8381C60.4706 62.375 61.0522 62.111 61.583 61.583C62.1137 61.055 62.3777 60.472 62.375 59.834V7.166C62.375 6.53075 62.111 5.94775 61.583 5.417C61.055 4.88625 60.472 4.62225 59.834 4.625H33.4216V0.5H59.8381C61.7356 0.5 63.3196 1.13662 64.5901 2.40987C65.8606 3.68312 66.4972 5.2685 66.5 7.166V59.8381C66.5 61.7356 65.8634 63.321 64.5901 64.5943C63.3169 65.8675 61.7329 66.5027 59.8381 66.5H33.4175ZM30.4887 48.0984L27.5889 45.1284L37.1589 35.5625H0.578369V31.4375H37.1589L27.5889 21.8675L30.4846 18.9058L45.083 33.5L30.4887 48.0984Z" fill="white"/>
</svg>
